HIERARCHY
ROOT Hips
{
  OFFSET 43.0842 91.1655 101.099
  CHANNELS 6 Xposition Yposition Zposition Zrotation Xrotation Yrotation
  JOINT LeftUpLeg
  {
    OFFSET 8.64259 1.95398 -2.38835
    CHANNELS 3 Zrotation Xrotation Yrotation
    JOINT LeftLeg
    {
      OFFSET 43.7702 0 0
      CHANNELS 3 Zrotation Xrotation Yrotation
      JOINT LeftFoot
      {
        OFFSET 40.6238 0 0
        CHANNELS 3 Zrotation Xrotation Yrotation
        JOINT LeftToeBase
        {
          OFFSET 12.7242 0 0
          CHANNELS 3 Zrotation Xrotation Yrotation
          End Site
          {
            OFFSET 0 0 0
          }
        }
      }
    }
  }
  JOINT RightUpLeg
  {
    OFFSET -8.2249 1.95398 -2.59336
    CHANNELS 3 Zrotation Xrotation Yrotation
    JOINT RightLeg
    {
      OFFSET 43.5653 0 0
      CHANNELS 3 Zrotation Xrotation Yrotation
      JOINT RightFoot
      {
        OFFSET 40.6238 0 0
        CHANNELS 3 Zrotation Xrotation Yrotation
        JOINT RightToeBase
        {
          OFFSET 12.7242 0 0
          CHANNELS 3 Zrotation Xrotation Yrotation
          End Site
          {
            OFFSET 0 0 0
          }
        }
      }
    }
  }
  JOINT Spine
  {
    OFFSET 0.165834 0.87714 6.61349
    CHANNELS 3 Zrotation Xrotation Yrotation
    JOINT Spine1
    {
      OFFSET 7.38963 1.71661e-005 0
      CHANNELS 3 Zrotation Xrotation Yrotation
      JOINT Spine2
      {
        OFFSET 11.9445 1.14441e-005 0
        CHANNELS 3 Zrotation Xrotation Yrotation
        JOINT Spine3
        {
          OFFSET 14.7254 4.19617e-005 0
          CHANNELS 3 Zrotation Xrotation Yrotation
          JOINT Spine4
          {
            OFFSET 10.9679 0 0
            CHANNELS 3 Zrotation Xrotation Yrotation
            JOINT RightShoulder
            {
              OFFSET 2.46616 -1.6653 3.69651
              CHANNELS 3 Zrotation Xrotation Yrotation
              JOINT RightArm
              {
                OFFSET 13.0012 0 0
                CHANNELS 3 Zrotation Xrotation Yrotation
                JOINT RightForeArm
                {
                  OFFSET 28.7848 1.52588e-005 0
                  CHANNELS 3 Zrotation Xrotation Yrotation
                  JOINT RightHand
                  {
                    OFFSET 26.5688 1.52588e-005 0
                    CHANNELS 3 Zrotation Xrotation Yrotation
                    End Site
                    {
                      OFFSET 0 0 0
                    }
                  }
                }
              }
            }
            JOINT LeftShoulder
            {
              OFFSET 2.38034 -1.29275 -3.7523
              CHANNELS 3 Zrotation Xrotation Yrotation
              JOINT LeftArm
              {
                OFFSET 16.3182 6.10351e-005 0
                CHANNELS 3 Zrotation Xrotation Yrotation
                JOINT LeftForeArm
                {
                  OFFSET 27.0901 0 0
                  CHANNELS 3 Zrotation Xrotation Yrotation
                  JOINT LeftHand
                  {
                    OFFSET 24.5451 1.52588e-005 0
                    CHANNELS 3 Zrotation Xrotation Yrotation
                    End Site
                    {
                      OFFSET 0 0 0
                    }
                  }
                }
              }
            }
            JOINT Neck
            {
              OFFSET 5.0226 -0.0266342 0
              CHANNELS 3 Zrotation Xrotation Yrotation
              JOINT Head
              {
                OFFSET 6.69364 2.86102e-005 0
                CHANNELS 3 Zrotation Xrotation Yrotation
                End Site
                {
                  OFFSET 0 0 0
                }
              }
            }
          }
        }
      }
    }
  }
}
MOTION
Frames:	13
Frame Time:	0.0333333
104.754 91.0392 -23.6279 -96.3087 -56.4092 -96.0794 -173.453 21.5523 100.196 -25.3519 15.295 -2.75285 57.3029 -5.85648 5.03807 29.0176 0.928023 -1.01347 171.738 0.624517 82.2692 -26.4574 -9.6903 -3.51397 71.3143 -10.161 -9.10848 40.6211 -6.15679 -1.43274 -0.0867577 7.25115 -90.248 12.3708 -0.290084 -0.462167 0.69981 -0.310145 -0.448961 -21.8348 -0.137782 -0.527984 -1.82211 -0.137761 -0.527987 95.1997 -44.1282 -93.6671 14.5601 -26.8243 -55.2685 -15.5537 -2.64864 -115.375 -11.2477 -1.6328 7.72945 -113.685 -61.7912 50.5877 3.25708 -58.3247 -30.7603 13.0208 22.1481 -107.956 19.0302 2.19806 2.28902 -23.9771 12.3518 13.2554 -5.08314 13.4393 14.6974 
104.72 91.0415 -23.6292 -96.7219 -56.7879 -96.3596 -173.45 21.5383 100.227 -25.4256 14.9655 -2.71602 57.2833 -5.89042 4.75439 28.9455 1.10673 -1.46133 171.622 0.28724 82.3336 -26.3601 -9.61848 -3.42167 71.2918 -10.1752 -9.21656 40.6855 -6.15782 -1.58605 -0.100154 7.26392 -90.2629 12.3451 -0.323829 -0.48824 0.674104 -0.344992 -0.473531 -21.8604 -0.162114 -0.562997 -1.84778 -0.162106 -0.562996 95.2179 -44.1436 -93.6345 14.1679 -26.9662 -55.3266 -15.7711 -2.48142 -115.378 -11.6122 -1.75925 7.64377 -113.818 -61.8101 50.4306 3.11176 -58.195 -30.7318 12.9685 22.2524 -107.854 19.324 2.2386 2.58843 -24.1253 12.1015 12.9587 -4.93628 13.202 14.7356 
104.698 91.0242 -23.6337 -96.8121 -57.0556 -96.5231 -173.489 21.5732 100.121 -25.4172 15.0096 -2.73211 57.302 -5.86469 4.56249 28.9926 0.98179 -1.15551 171.632 0.163578 82.3317 -26.3232 -9.3145 -3.47209 71.3969 -10.3255 -9.10195 40.6151 -6.09569 -1.69159 -0.110335 7.25404 -90.2478 12.3649 -0.336999 -0.456601 0.693902 -0.356754 -0.441334 -21.8407 -0.184188 -0.536766 -1.8281 -0.184199 -0.536767 95.1941 -44.157 -93.6721 13.9762 -27.2138 -55.4006 -16.8363 -2.11658 -115.212 -11.4896 -1.71063 7.89151 -113.809 -61.7882 50.4328 3.43674 -57.6898 -30.2183 13.1937 21.8097 -107.928 19.5982 2.28274 2.66722 -24.1624 12.1754 12.797 -4.91111 13.2727 14.7493 
104.67 90.9936 -23.6348 -96.7028 -57.3737 -96.6362 -173.447 21.6037 99.9455 -25.1926 15.7331 -2.86316 57.2858 -5.86542 5.01463 28.8391 0.952281 -1.42714 171.616 0.233696 82.2456 -26.409 -8.83764 -3.54066 71.5161 -10.3762 -8.89959 40.782 -6.14422 -1.88573 -0.116156 7.23232 -90.2271 12.4084 -0.338711 -0.414841 0.737483 -0.356631 -0.399536 -21.7973 -0.198376 -0.497458 -1.78464 -0.198375 -0.497454 95.1855 -44.1 -93.6952 14.1825 -27.2823 -55.2037 -16.9445 -2.16309 -115.066 -10.5699 -1.41417 7.43762 -114.312 -61.9691 49.8917 4.06176 -57.4183 -29.8916 13.1705 21.7269 -107.877 20.2705 2.39396 2.73306 -24.2063 12.2305 12.674 -4.78184 13.3407 14.7567 
104.649 90.951 -23.6652 -96.5608 -57.4762 -96.6828 -173.569 21.6759 99.7644 -25.2284 15.7146 -2.82736 57.3468 -5.75609 4.98806 28.8151 0.79656 -1.22 171.585 0.555669 82.1124 -26.915 -9.09123 -3.53278 71.612 -10.4412 -9.1719 40.5776 -5.98168 -2.1073 -0.115419 7.21868 -90.1964 12.4358 -0.322602 -0.355245 0.764909 -0.337923 -0.340704 -21.77 -0.200926 -0.435777 -1.75737 -0.200942 -0.435776 95.2267 -44.0336 -93.6368 14.0353 -27.5145 -55.545 -16.876 -2.12606 -114.73 -10.6131 -1.43899 7.1788 -113.743 -61.7984 50.5185 3.88993 -57.1489 -29.6965 13.0494 21.7803 -107.732 20.6852 2.46455 2.69848 -24.2124 12.3675 12.6037 -4.32178 13.531 14.7117 
104.559 90.8858 -23.731 -96.6188 -57.637 -96.6737 -173.821 21.8027 99.7791 -25.5645 15.3856 -2.55082 57.4385 -5.50063 4.61662 29.0305 0.89241 -0.928802 171.702 0.578466 82.3015 -27.2264 -9.37719 -3.54545 71.6801 -10.4207 -9.59807 40.6553 -5.94967 -2.44231 -0.122788 7.19211 -90.1832 12.4891 -0.331106 -0.32776 0.818132 -0.345203 -0.312878 -21.7169 -0.217279 -0.412107 -1.70421 -0.217292 -0.41212 95.1386 -43.9336 -93.7997 14.1288 -27.7841 -55.4692 -16.954 -2.2051 -114.486 -11.1337 -1.61309 7.188 -112.907 -61.5469 51.444 5.37515 -55.9529 -27.2692 10.7855 22.0598 -106.731 22.1122 2.70156 2.64918 -24.3524 12.527 12.5054 -3.86144 13.7586 14.6541 
104.44 90.7671 -23.7058 -96.0537 -58.1077 -96.0879 -174.044 22.4559 99.8656 -26.212 16.4261 -2.39162 57.5729 -5.05717 4.50552 29.379 1.33373 -0.928409 171.746 0.896405 82.5322 -27.5206 -9.29474 -3.37223 71.9195 -10.4448 -9.93889 40.9042 -6.01992 -2.75034 -0.126224 7.09508 -90.1613 12.6832 -0.327672 -0.283688 1.01232 -0.339835 -0.268995 -21.5228 -0.227258 -0.369046 -1.51013 -0.227272 -0.369059 95.1485 -44.3519 -93.7172 13.7956 -28.0773 -55.4095 -16.5838 -2.59364 -114.166 -12.7257 -2.14079 7.34946 -112.038 -61.3875 52.459 8.8935 -52.0179 -21.1023 7.14917 21.2594 -104.748 24.2528 3.04832 2.02915 -24.6987 12.421 12.7667 -3.37872 13.7682 13.7795 
104.287 90.7 -23.5354 -94.6345 -58.802 -94.4605 -174.311 23.8398 100.252 -27.3229 17.4792 -2.19536 57.7679 -4.44835 3.54243 29.7516 1.52775 -0.460419 172.066 1.13414 83.2181 -27.1417 -8.56143 -3.14078 71.8465 -10.1451 -10.2017 40.6707 -5.8216 -3.04844 -0.116598 6.9911 -90.163 12.8912 -0.309613 -0.288528 1.22029 -0.32202 -0.27463 -21.3148 -0.208597 -0.368235 -1.3021 -0.20858 -0.368238 95.0334 -44.8878 -93.8243 11.9559 -29.1656 -56.6816 -17.284 -1.81274 -113.348 -14.3544 -2.68713 7.188 -111.328 -61.5274 53.408 11.4256 -45.9162 -13.0193 5.67759 18.475 -103.808 25.5101 3.24924 1.91331 -24.4521 12.2855 13.3247 -2.59393 13.713 12.5698 
104.276 90.7148 -23.2594 -93.6033 -60.3507 -93.363 -173.892 25.7011 100.422 -28.7495 18.087 -2.43704 57.3631 -4.21985 1.00457 30.2619 1.89924 0.0140704 171.719 0.961611 83.3795 -26.4817 -8.18157 -2.63083 71.9449 -9.50336 -10.4391 40.3923 -5.58864 -3.37588 0.0320799 6.94638 -90.2042 12.9809 -0.0343542 -0.404324 1.30991 -0.0521171 -0.40243 -21.2248 0.0887508 -0.395965 -1.21211 0.0887603 -0.395967 95.3082 -44.5328 -93.4248 10.7101 -29.2167 -57.3029 -19.1939 -0.71257 -112.844 -16.3341 -3.34545 7.09291 -114.077 -62.6444 50.4851 12.4558 -39.4402 -4.73019 3.40196 16.4679 -102.066 26.2973 3.40816 2.83403 -23.8779 11.2549 12.8087 -1.48574 12.6403 11.3967 
104.363 90.7352 -22.7938 -92.9048 -63.0902 -92.6886 -173.362 28.264 100.201 -31.0054 17.9548 -2.80313 57.3716 -3.49093 -2.76733 31.266 3.02298 0.272382 170.732 -0.0539964 83.1829 -24.7916 -6.67005 -1.69099 72.2601 -8.98022 -10.293 39.8084 -5.27353 -3.29762 0.158357 6.94548 -90.1935 12.9832 0.221487 -0.413971 1.3122 0.203049 -0.423324 -21.2228 0.335653 -0.328274 -1.21013 0.335664 -0.328271 95.1958 -44.5511 -93.6075 10.9281 -27.0843 -57.3937 -21.6786 -1.00601 -112.134 -17.9703 -3.90279 7.41587 -116.219 -63.4253 48.2225 9.84475 -30.7729 2.62494 4.13469 11.3003 -98.9446 26.0987 3.39663 3.41668 -23.2711 9.95583 11.48 0.126196 11.2583 10.0462 
104.563 90.5894 -22.1473 -92.6714 -66.4505 -92.064 -174.654 30.9351 100.405 -33.7285 20.4871 -2.13412 58.0673 -2.18872 -7.83494 34.2169 5.32817 3.02836 170.223 -1.55623 83.5204 -23.3356 -4.97555 -0.927833 72.1649 -8.39446 -10.876 39.6284 -5.17064 -3.29803 0.347697 6.99182 -90.2383 12.8914 0.576138 -0.545956 1.22046 0.551556 -0.570782 -21.3152 0.713579 -0.347558 -1.30252 0.713578 -0.347563 95.1053 -44.7882 -93.7212 10.5837 -22.8803 -57.5239 -25.2375 -2.20102 -110.219 -20.4368 -4.76713 8.15148 -116.248 -63.7512 48.3362 5.67339 -23.1463 9.52842 6.25813 7.20434 -93.8057 26.2305 3.40369 2.96123 -22.5821 8.22204 10.1749 1.49107 9.37761 8.36 
104.76 90.2963 -21.068 -92.3032 -69.0438 -91.5563 -176.324 32.2882 100.785 -33.4878 23.5132 -1.37315 58.7112 -1.41114 -5.57201 35.0053 5.87712 3.96777 169.758 -2.99317 83.5081 -22.2726 -4.70268 -0.520801 71.996 -7.83164 -12.1023 39.7807 -5.27393 -3.22712 0.654564 7.02291 -90.2719 12.832 1.1695 -0.683769 1.16143 1.13829 -0.734586 -21.3776 1.32094 -0.300626 -1.36498 1.32093 -0.300622 95.7405 -43.3292 -92.8803 12.1572 -17.3983 -57.4775 -29.8518 -5.96421 -105.671 -22.6673 -5.52313 7.98374 -114.54 -63.5403 50.3163 2.03652 -21.102 16.0787 8.59717 4.42195 -89.1247 26.2698 3.37117 1.92146 -21.9554 6.5704 7.9918 2.42377 7.5462 7.73131 
105.185 89.6825 -19.4851 -92.7673 -72.0815 -91.9297 -177.181 32.597 100.703 -30.6737 23.1151 -1.0995 58.3012 -1.66829 2.31024 33.2278 3.39308 4.15776 168.916 -4.6906 82.9098 -21.8446 -3.42711 -0.039971 72.363 -7.09302 -12.35 40.9286 -6.07336 -2.57156 0.900085 6.9901 -90.2613 12.8999 1.66196 -0.723053 1.22978 1.62852 -0.795514 -21.3136 1.8024 -0.19 -1.30098 1.8024 -0.189997 96.6358 -41.5564 -91.6024 12.2586 -13.2406 -55.4576 -33.0495 -9.38769 -98.1359 -23.791 -5.92462 8.18825 -110.727 -62.6888 54.646 2.24527 -23.0967 23.8068 7.37777 3.6142 -86.2606 28.3403 3.71617 2.20036 -22.2742 5.07056 4.34005 3.46738 5.9288 7.93586 
